<mxfile host="app.diagrams.net" agent="Mozilla/5.0 (Macintosh; Intel Mac OS X 10_15_7) AppleWebKit/537.36 (KHTML, like Gecko) Chrome/130.0.0.0 Safari/537.36" version="24.8.3">
  <diagram name="Page-1" id="KsiKs5V35rdnmLiFupcE">
    <mxGraphModel dx="1590" dy="883" grid="1" gridSize="10" guides="1" tooltips="1" connect="1" arrows="1" fold="1" page="0" pageScale="1" pageWidth="827" pageHeight="1169" math="0" shadow="0">
      <root>
        <mxCell id="0" />
        <mxCell id="1" parent="0" />
        <mxCell id="0CgqnL2U3YnVDViywa0a-20" style="edgeStyle=orthogonalEdgeStyle;rounded=0;orthogonalLoop=1;jettySize=auto;html=1;exitX=0.5;exitY=1;exitDx=0;exitDy=0;entryX=0.5;entryY=0;entryDx=0;entryDy=0;" edge="1" parent="1" source="0CgqnL2U3YnVDViywa0a-13" target="0CgqnL2U3YnVDViywa0a-15">
          <mxGeometry relative="1" as="geometry" />
        </mxCell>
        <mxCell id="0CgqnL2U3YnVDViywa0a-13" value="login page displayed" style="rounded=0;whiteSpace=wrap;html=1;" vertex="1" parent="1">
          <mxGeometry x="280" y="40" width="120" height="60" as="geometry" />
        </mxCell>
        <mxCell id="0CgqnL2U3YnVDViywa0a-16" style="edgeStyle=orthogonalEdgeStyle;rounded=0;orthogonalLoop=1;jettySize=auto;html=1;exitX=0;exitY=0.5;exitDx=0;exitDy=0;entryX=0;entryY=0.5;entryDx=0;entryDy=0;" edge="1" parent="1" source="0CgqnL2U3YnVDViywa0a-15" target="0CgqnL2U3YnVDViywa0a-13">
          <mxGeometry relative="1" as="geometry" />
        </mxCell>
        <mxCell id="0CgqnL2U3YnVDViywa0a-17" value="no" style="edgeLabel;html=1;align=center;verticalAlign=middle;resizable=0;points=[];" vertex="1" connectable="0" parent="0CgqnL2U3YnVDViywa0a-16">
          <mxGeometry x="0.0897" y="1" relative="1" as="geometry">
            <mxPoint as="offset" />
          </mxGeometry>
        </mxCell>
        <mxCell id="0CgqnL2U3YnVDViywa0a-19" style="edgeStyle=orthogonalEdgeStyle;rounded=0;orthogonalLoop=1;jettySize=auto;html=1;exitX=0.5;exitY=1;exitDx=0;exitDy=0;entryX=0.5;entryY=0;entryDx=0;entryDy=0;" edge="1" parent="1" source="0CgqnL2U3YnVDViywa0a-15" target="0CgqnL2U3YnVDViywa0a-22">
          <mxGeometry relative="1" as="geometry">
            <mxPoint x="340" y="270" as="targetPoint" />
          </mxGeometry>
        </mxCell>
        <mxCell id="0CgqnL2U3YnVDViywa0a-35" value="yes" style="edgeLabel;html=1;align=center;verticalAlign=middle;resizable=0;points=[];" vertex="1" connectable="0" parent="0CgqnL2U3YnVDViywa0a-19">
          <mxGeometry x="-0.2764" y="-2" relative="1" as="geometry">
            <mxPoint as="offset" />
          </mxGeometry>
        </mxCell>
        <mxCell id="0CgqnL2U3YnVDViywa0a-15" value="login button clicked?" style="rhombus;whiteSpace=wrap;html=1;" vertex="1" parent="1">
          <mxGeometry x="290" y="140" width="100" height="90" as="geometry" />
        </mxCell>
        <mxCell id="0CgqnL2U3YnVDViywa0a-27" style="edgeStyle=orthogonalEdgeStyle;rounded=0;orthogonalLoop=1;jettySize=auto;html=1;exitX=0.5;exitY=1;exitDx=0;exitDy=0;entryX=0.5;entryY=0;entryDx=0;entryDy=0;" edge="1" parent="1" source="0CgqnL2U3YnVDViywa0a-22" target="0CgqnL2U3YnVDViywa0a-36">
          <mxGeometry relative="1" as="geometry" />
        </mxCell>
        <mxCell id="0CgqnL2U3YnVDViywa0a-31" value="yes" style="edgeLabel;html=1;align=center;verticalAlign=middle;resizable=0;points=[];" vertex="1" connectable="0" parent="0CgqnL2U3YnVDViywa0a-27">
          <mxGeometry x="-0.1105" y="-2" relative="1" as="geometry">
            <mxPoint x="2" y="-2" as="offset" />
          </mxGeometry>
        </mxCell>
        <mxCell id="0CgqnL2U3YnVDViywa0a-29" value="no" style="edgeStyle=orthogonalEdgeStyle;rounded=0;orthogonalLoop=1;jettySize=auto;html=1;exitX=0;exitY=0.5;exitDx=0;exitDy=0;" edge="1" parent="1" source="0CgqnL2U3YnVDViywa0a-22">
          <mxGeometry relative="1" as="geometry">
            <mxPoint x="260" y="190.0000000000001" as="targetPoint" />
          </mxGeometry>
        </mxCell>
        <mxCell id="0CgqnL2U3YnVDViywa0a-22" value="reCAPTCHA verified?" style="rhombus;whiteSpace=wrap;html=1;" vertex="1" parent="1">
          <mxGeometry x="290" y="280" width="100" height="90" as="geometry" />
        </mxCell>
        <mxCell id="0CgqnL2U3YnVDViywa0a-30" style="edgeStyle=orthogonalEdgeStyle;rounded=0;orthogonalLoop=1;jettySize=auto;html=1;exitX=0;exitY=0.5;exitDx=0;exitDy=0;entryX=0;entryY=0.5;entryDx=0;entryDy=0;" edge="1" parent="1" source="0CgqnL2U3YnVDViywa0a-26" target="0CgqnL2U3YnVDViywa0a-36">
          <mxGeometry relative="1" as="geometry">
            <mxPoint x="260" y="330" as="targetPoint" />
            <mxPoint x="230" y="530" as="sourcePoint" />
          </mxGeometry>
        </mxCell>
        <mxCell id="0CgqnL2U3YnVDViywa0a-34" value="no" style="edgeLabel;html=1;align=center;verticalAlign=middle;resizable=0;points=[];" vertex="1" connectable="0" parent="0CgqnL2U3YnVDViywa0a-30">
          <mxGeometry x="0.0762" relative="1" as="geometry">
            <mxPoint as="offset" />
          </mxGeometry>
        </mxCell>
        <mxCell id="0CgqnL2U3YnVDViywa0a-33" value="yes" style="edgeStyle=orthogonalEdgeStyle;rounded=0;orthogonalLoop=1;jettySize=auto;html=1;exitX=0.5;exitY=1;exitDx=0;exitDy=0;entryX=0.5;entryY=0;entryDx=0;entryDy=0;" edge="1" parent="1" source="0CgqnL2U3YnVDViywa0a-26" target="0CgqnL2U3YnVDViywa0a-32">
          <mxGeometry x="-0.3333" relative="1" as="geometry">
            <mxPoint as="offset" />
          </mxGeometry>
        </mxCell>
        <mxCell id="0CgqnL2U3YnVDViywa0a-26" value="is login valid?" style="rhombus;whiteSpace=wrap;html=1;" vertex="1" parent="1">
          <mxGeometry x="290" y="540" width="100" height="90" as="geometry" />
        </mxCell>
        <mxCell id="0CgqnL2U3YnVDViywa0a-32" value="login successful,&lt;div&gt;redirect to home page&lt;/div&gt;" style="rounded=0;whiteSpace=wrap;html=1;" vertex="1" parent="1">
          <mxGeometry x="280" y="670" width="120" height="60" as="geometry" />
        </mxCell>
        <mxCell id="0CgqnL2U3YnVDViywa0a-36" value="validate user" style="rounded=0;whiteSpace=wrap;html=1;" vertex="1" parent="1">
          <mxGeometry x="280" y="430" width="120" height="60" as="geometry" />
        </mxCell>
        <mxCell id="0CgqnL2U3YnVDViywa0a-37" style="edgeStyle=orthogonalEdgeStyle;rounded=0;orthogonalLoop=1;jettySize=auto;html=1;exitX=0.5;exitY=1;exitDx=0;exitDy=0;entryX=0.502;entryY=-0.041;entryDx=0;entryDy=0;entryPerimeter=0;" edge="1" parent="1" source="0CgqnL2U3YnVDViywa0a-36" target="0CgqnL2U3YnVDViywa0a-26">
          <mxGeometry relative="1" as="geometry" />
        </mxCell>
      </root>
    </mxGraphModel>
  </diagram>
</mxfile>
